<svg width="1332" height="647" viewBox="0 0 1332 647" fill="none" xmlns="http://www.w3.org/2000/svg">
<rect width="1332" height="647" fill="black"/>
<path d="M463.875 374.261C463.693 372.648 462.943 371.398 461.625 370.511C460.307 369.614 458.648 369.165 456.648 369.165C455.216 369.165 453.977 369.392 452.932 369.847C451.886 370.29 451.074 370.903 450.494 371.688C449.926 372.46 449.642 373.341 449.642 374.33C449.642 375.159 449.835 375.875 450.222 376.477C450.619 377.08 451.136 377.585 451.773 377.994C452.42 378.392 453.114 378.727 453.852 379C454.591 379.261 455.301 379.477 455.983 379.648L459.392 380.534C460.506 380.807 461.648 381.176 462.818 381.642C463.989 382.108 465.074 382.722 466.074 383.483C467.074 384.244 467.881 385.188 468.494 386.312C469.119 387.438 469.432 388.784 469.432 390.352C469.432 392.33 468.92 394.085 467.898 395.619C466.886 397.153 465.415 398.364 463.483 399.25C461.563 400.136 459.239 400.58 456.511 400.58C453.898 400.58 451.636 400.165 449.727 399.335C447.818 398.506 446.324 397.33 445.244 395.807C444.165 394.273 443.568 392.455 443.455 390.352H448.739C448.841 391.614 449.25 392.665 449.966 393.506C450.693 394.335 451.619 394.955 452.744 395.364C453.881 395.761 455.125 395.96 456.477 395.96C457.966 395.96 459.29 395.727 460.449 395.261C461.619 394.784 462.54 394.125 463.21 393.284C463.881 392.432 464.216 391.437 464.216 390.301C464.216 389.267 463.92 388.42 463.33 387.761C462.75 387.102 461.96 386.557 460.96 386.125C459.972 385.693 458.852 385.312 457.602 384.983L453.477 383.858C450.682 383.097 448.466 381.977 446.83 380.5C445.205 379.023 444.392 377.068 444.392 374.636C444.392 372.625 444.938 370.869 446.028 369.369C447.119 367.869 448.597 366.705 450.46 365.875C452.324 365.034 454.426 364.614 456.767 364.614C459.131 364.614 461.216 365.028 463.023 365.858C464.841 366.688 466.273 367.83 467.318 369.284C468.364 370.727 468.909 372.386 468.955 374.261H463.875ZM486.601 400.528C484.021 400.528 481.8 399.977 479.936 398.875C478.084 397.761 476.652 396.199 475.641 394.188C474.641 392.165 474.141 389.795 474.141 387.08C474.141 384.398 474.641 382.034 475.641 379.989C476.652 377.943 478.061 376.347 479.868 375.199C481.686 374.051 483.811 373.477 486.243 373.477C487.72 373.477 489.152 373.722 490.538 374.21C491.925 374.699 493.169 375.466 494.271 376.511C495.374 377.557 496.243 378.915 496.879 380.585C497.516 382.244 497.834 384.261 497.834 386.636V388.443H477.021V384.625H492.839C492.839 383.284 492.567 382.097 492.021 381.062C491.476 380.017 490.709 379.193 489.72 378.591C488.743 377.989 487.595 377.688 486.277 377.688C484.845 377.688 483.595 378.04 482.527 378.744C481.47 379.437 480.652 380.347 480.072 381.472C479.504 382.585 479.22 383.795 479.22 385.102V388.085C479.22 389.835 479.527 391.324 480.141 392.551C480.766 393.778 481.635 394.716 482.749 395.364C483.862 396 485.163 396.318 486.652 396.318C487.618 396.318 488.499 396.182 489.294 395.909C490.089 395.625 490.777 395.205 491.357 394.648C491.936 394.091 492.379 393.403 492.686 392.585L497.51 393.455C497.124 394.875 496.43 396.119 495.43 397.188C494.442 398.244 493.197 399.068 491.697 399.659C490.209 400.239 488.51 400.528 486.601 400.528ZM508.585 365.091V400H503.489V365.091H508.585ZM526.726 400.528C524.146 400.528 521.925 399.977 520.061 398.875C518.209 397.761 516.777 396.199 515.766 394.188C514.766 392.165 514.266 389.795 514.266 387.08C514.266 384.398 514.766 382.034 515.766 379.989C516.777 377.943 518.186 376.347 519.993 375.199C521.811 374.051 523.936 373.477 526.368 373.477C527.845 373.477 529.277 373.722 530.663 374.21C532.05 374.699 533.294 375.466 534.396 376.511C535.499 377.557 536.368 378.915 537.004 380.585C537.641 382.244 537.959 384.261 537.959 386.636V388.443H517.146V384.625H532.964C532.964 383.284 532.692 382.097 532.146 381.062C531.601 380.017 530.834 379.193 529.845 378.591C528.868 377.989 527.72 377.688 526.402 377.688C524.97 377.688 523.72 378.04 522.652 378.744C521.595 379.437 520.777 380.347 520.197 381.472C519.629 382.585 519.345 383.795 519.345 385.102V388.085C519.345 389.835 519.652 391.324 520.266 392.551C520.891 393.778 521.76 394.716 522.874 395.364C523.987 396 525.288 396.318 526.777 396.318C527.743 396.318 528.624 396.182 529.419 395.909C530.214 395.625 530.902 395.205 531.482 394.648C532.061 394.091 532.504 393.403 532.811 392.585L537.635 393.455C537.249 394.875 536.555 396.119 535.555 397.188C534.567 398.244 533.322 399.068 531.822 399.659C530.334 400.239 528.635 400.528 526.726 400.528ZM554.642 400.528C552.108 400.528 549.926 399.955 548.097 398.807C546.278 397.648 544.881 396.051 543.903 394.017C542.926 391.983 542.438 389.653 542.438 387.028C542.438 384.369 542.938 382.023 543.938 379.989C544.938 377.943 546.347 376.347 548.165 375.199C549.983 374.051 552.125 373.477 554.591 373.477C556.58 373.477 558.352 373.847 559.909 374.585C561.466 375.312 562.722 376.335 563.676 377.653C564.642 378.972 565.216 380.511 565.398 382.273H560.438C560.165 381.045 559.54 379.989 558.562 379.102C557.597 378.216 556.301 377.773 554.676 377.773C553.256 377.773 552.011 378.148 550.943 378.898C549.886 379.636 549.063 380.693 548.472 382.068C547.881 383.432 547.585 385.045 547.585 386.909C547.585 388.818 547.875 390.466 548.455 391.852C549.034 393.239 549.852 394.312 550.909 395.074C551.977 395.835 553.233 396.216 554.676 396.216C555.642 396.216 556.517 396.04 557.301 395.688C558.097 395.324 558.761 394.807 559.295 394.136C559.841 393.466 560.222 392.659 560.438 391.716H565.398C565.216 393.409 564.665 394.92 563.744 396.25C562.824 397.58 561.591 398.625 560.045 399.386C558.511 400.148 556.71 400.528 554.642 400.528ZM583.07 373.818V377.909H568.768V373.818H583.07ZM572.604 367.545H577.7V392.312C577.7 393.301 577.848 394.045 578.143 394.545C578.439 395.034 578.82 395.369 579.286 395.551C579.763 395.722 580.28 395.807 580.837 395.807C581.246 395.807 581.604 395.778 581.911 395.722C582.217 395.665 582.456 395.619 582.626 395.585L583.547 399.795C583.251 399.909 582.831 400.023 582.286 400.136C581.74 400.261 581.058 400.33 580.24 400.341C578.899 400.364 577.649 400.125 576.49 399.625C575.331 399.125 574.393 398.352 573.678 397.307C572.962 396.261 572.604 394.949 572.604 393.369V367.545ZM612.439 400.528C609.905 400.528 607.723 399.955 605.893 398.807C604.075 397.648 602.678 396.051 601.7 394.017C600.723 391.983 600.234 389.653 600.234 387.028C600.234 384.369 600.734 382.023 601.734 379.989C602.734 377.943 604.143 376.347 605.962 375.199C607.78 374.051 609.922 373.477 612.388 373.477C614.376 373.477 616.149 373.847 617.706 374.585C619.263 375.312 620.518 376.335 621.473 377.653C622.439 378.972 623.013 380.511 623.195 382.273H618.234C617.962 381.045 617.337 379.989 616.359 379.102C615.393 378.216 614.098 377.773 612.473 377.773C611.053 377.773 609.808 378.148 608.74 378.898C607.683 379.636 606.859 380.693 606.268 382.068C605.678 383.432 605.382 385.045 605.382 386.909C605.382 388.818 605.672 390.466 606.251 391.852C606.831 393.239 607.649 394.312 608.706 395.074C609.774 395.835 611.03 396.216 612.473 396.216C613.439 396.216 614.314 396.04 615.098 395.688C615.893 395.324 616.558 394.807 617.092 394.136C617.638 393.466 618.018 392.659 618.234 391.716H623.195C623.013 393.409 622.462 394.92 621.541 396.25C620.621 397.58 619.388 398.625 617.842 399.386C616.308 400.148 614.507 400.528 612.439 400.528ZM639.673 400.528C637.219 400.528 635.077 399.966 633.247 398.841C631.418 397.716 629.997 396.142 628.986 394.119C627.974 392.097 627.469 389.733 627.469 387.028C627.469 384.312 627.974 381.937 628.986 379.903C629.997 377.869 631.418 376.29 633.247 375.165C635.077 374.04 637.219 373.477 639.673 373.477C642.128 373.477 644.27 374.04 646.099 375.165C647.929 376.29 649.349 377.869 650.361 379.903C651.372 381.937 651.878 384.312 651.878 387.028C651.878 389.733 651.372 392.097 650.361 394.119C649.349 396.142 647.929 397.716 646.099 398.841C644.27 399.966 642.128 400.528 639.673 400.528ZM639.69 396.25C641.281 396.25 642.599 395.83 643.645 394.989C644.69 394.148 645.463 393.028 645.963 391.631C646.474 390.233 646.73 388.693 646.73 387.011C646.73 385.341 646.474 383.807 645.963 382.409C645.463 381 644.69 379.869 643.645 379.017C642.599 378.165 641.281 377.739 639.69 377.739C638.088 377.739 636.759 378.165 635.702 379.017C634.656 379.869 633.878 381 633.366 382.409C632.866 383.807 632.616 385.341 632.616 387.011C632.616 388.693 632.866 390.233 633.366 391.631C633.878 393.028 634.656 394.148 635.702 394.989C636.759 395.83 638.088 396.25 639.69 396.25ZM679.074 373.818L669.58 400H664.125L654.614 373.818H660.085L666.716 393.966H666.989L673.602 373.818H679.074ZM694.257 400.528C691.678 400.528 689.456 399.977 687.592 398.875C685.74 397.761 684.308 396.199 683.297 394.188C682.297 392.165 681.797 389.795 681.797 387.08C681.797 384.398 682.297 382.034 683.297 379.989C684.308 377.943 685.717 376.347 687.524 375.199C689.342 374.051 691.467 373.477 693.899 373.477C695.376 373.477 696.808 373.722 698.195 374.21C699.581 374.699 700.825 375.466 701.928 376.511C703.03 377.557 703.899 378.915 704.536 380.585C705.172 382.244 705.49 384.261 705.49 386.636V388.443H684.678V384.625H700.496C700.496 383.284 700.223 382.097 699.678 381.062C699.132 380.017 698.365 379.193 697.376 378.591C696.399 377.989 695.251 377.688 693.933 377.688C692.501 377.688 691.251 378.04 690.183 378.744C689.126 379.437 688.308 380.347 687.729 381.472C687.161 382.585 686.876 383.795 686.876 385.102V388.085C686.876 389.835 687.183 391.324 687.797 392.551C688.422 393.778 689.291 394.716 690.405 395.364C691.518 396 692.82 396.318 694.308 396.318C695.274 396.318 696.155 396.182 696.95 395.909C697.746 395.625 698.433 395.205 699.013 394.648C699.592 394.091 700.036 393.403 700.342 392.585L705.166 393.455C704.78 394.875 704.087 396.119 703.087 397.188C702.098 398.244 700.854 399.068 699.354 399.659C697.865 400.239 696.166 400.528 694.257 400.528ZM711.145 400V373.818H716.071V377.977H716.344C716.821 376.568 717.662 375.46 718.866 374.653C720.082 373.835 721.457 373.426 722.991 373.426C723.31 373.426 723.685 373.437 724.116 373.46C724.56 373.483 724.906 373.511 725.156 373.545V378.42C724.952 378.364 724.588 378.301 724.065 378.233C723.543 378.153 723.02 378.114 722.497 378.114C721.293 378.114 720.219 378.369 719.276 378.881C718.344 379.381 717.605 380.08 717.06 380.977C716.514 381.864 716.241 382.875 716.241 384.011V400H711.145ZM754.973 400V373.818H760.07V400H754.973ZM757.547 369.778C756.661 369.778 755.899 369.483 755.263 368.892C754.638 368.29 754.325 367.574 754.325 366.744C754.325 365.903 754.638 365.187 755.263 364.597C755.899 363.994 756.661 363.693 757.547 363.693C758.433 363.693 759.189 363.994 759.814 364.597C760.45 365.187 760.768 365.903 760.768 366.744C760.768 367.574 760.45 368.29 759.814 368.892C759.189 369.483 758.433 369.778 757.547 369.778ZM766.926 400V373.818H771.818V378.08H772.142C772.688 376.636 773.58 375.511 774.818 374.705C776.057 373.886 777.54 373.477 779.267 373.477C781.017 373.477 782.483 373.886 783.665 374.705C784.858 375.523 785.739 376.648 786.307 378.08H786.58C787.205 376.682 788.199 375.568 789.562 374.739C790.926 373.898 792.551 373.477 794.438 373.477C796.812 373.477 798.75 374.222 800.25 375.71C801.761 377.199 802.517 379.443 802.517 382.443V400H797.42V382.92C797.42 381.148 796.938 379.864 795.972 379.068C795.006 378.273 793.852 377.875 792.511 377.875C790.852 377.875 789.562 378.386 788.642 379.409C787.722 380.42 787.261 381.722 787.261 383.312V400H782.182V382.597C782.182 381.176 781.739 380.034 780.852 379.17C779.966 378.307 778.813 377.875 777.392 377.875C776.426 377.875 775.534 378.131 774.716 378.642C773.909 379.142 773.256 379.841 772.756 380.739C772.267 381.636 772.023 382.676 772.023 383.858V400H766.926ZM816.967 400.58C815.308 400.58 813.808 400.273 812.467 399.659C811.126 399.034 810.064 398.131 809.28 396.949C808.507 395.767 808.121 394.318 808.121 392.602C808.121 391.125 808.405 389.909 808.973 388.955C809.541 388 810.308 387.244 811.274 386.688C812.24 386.131 813.32 385.71 814.513 385.426C815.706 385.142 816.922 384.926 818.161 384.778C819.729 384.597 821.001 384.449 821.979 384.335C822.956 384.21 823.666 384.011 824.109 383.739C824.553 383.466 824.774 383.023 824.774 382.409V382.29C824.774 380.801 824.354 379.648 823.513 378.83C822.683 378.011 821.445 377.602 819.797 377.602C818.081 377.602 816.729 377.983 815.74 378.744C814.763 379.494 814.087 380.33 813.712 381.25L808.922 380.159C809.49 378.568 810.32 377.284 811.411 376.307C812.513 375.318 813.78 374.602 815.212 374.159C816.643 373.705 818.149 373.477 819.729 373.477C820.774 373.477 821.882 373.602 823.053 373.852C824.234 374.091 825.337 374.534 826.359 375.182C827.393 375.83 828.24 376.756 828.899 377.96C829.558 379.153 829.888 380.705 829.888 382.614V400H824.911V396.42H824.706C824.376 397.08 823.882 397.727 823.223 398.364C822.564 399 821.717 399.528 820.683 399.949C819.649 400.369 818.411 400.58 816.967 400.58ZM818.075 396.489C819.484 396.489 820.689 396.21 821.689 395.653C822.7 395.097 823.467 394.369 823.99 393.472C824.524 392.562 824.791 391.591 824.791 390.557V387.182C824.609 387.364 824.257 387.534 823.734 387.693C823.223 387.841 822.638 387.972 821.979 388.085C821.32 388.187 820.678 388.284 820.053 388.375C819.428 388.455 818.905 388.523 818.484 388.58C817.496 388.705 816.592 388.915 815.774 389.21C814.967 389.506 814.32 389.932 813.831 390.489C813.354 391.034 813.115 391.761 813.115 392.67C813.115 393.932 813.581 394.886 814.513 395.534C815.445 396.17 816.632 396.489 818.075 396.489ZM847.653 410.364C845.574 410.364 843.784 410.091 842.284 409.545C840.795 409 839.58 408.278 838.636 407.381C837.693 406.483 836.989 405.5 836.523 404.432L840.903 402.625C841.21 403.125 841.619 403.653 842.131 404.21C842.653 404.778 843.358 405.261 844.244 405.659C845.142 406.057 846.295 406.256 847.705 406.256C849.636 406.256 851.233 405.784 852.494 404.841C853.756 403.909 854.386 402.42 854.386 400.375V395.227H854.062C853.756 395.784 853.313 396.403 852.733 397.085C852.165 397.767 851.381 398.358 850.381 398.858C849.381 399.358 848.08 399.608 846.477 399.608C844.409 399.608 842.545 399.125 840.886 398.159C839.239 397.182 837.932 395.744 836.966 393.847C836.011 391.937 835.534 389.591 835.534 386.807C835.534 384.023 836.006 381.636 836.949 379.648C837.903 377.659 839.21 376.136 840.869 375.08C842.528 374.011 844.409 373.477 846.511 373.477C848.136 373.477 849.449 373.75 850.449 374.295C851.449 374.83 852.227 375.455 852.784 376.17C853.352 376.886 853.79 377.517 854.097 378.062H854.472V373.818H859.466V400.58C859.466 402.83 858.943 404.676 857.898 406.119C856.852 407.563 855.438 408.631 853.653 409.324C851.881 410.017 849.881 410.364 847.653 410.364ZM847.602 395.381C849.068 395.381 850.307 395.04 851.318 394.358C852.341 393.665 853.114 392.676 853.636 391.392C854.17 390.097 854.438 388.545 854.438 386.739C854.438 384.977 854.176 383.426 853.653 382.085C853.131 380.744 852.364 379.699 851.352 378.949C850.341 378.187 849.091 377.807 847.602 377.807C846.068 377.807 844.79 378.205 843.767 379C842.744 379.784 841.972 380.852 841.449 382.205C840.938 383.557 840.682 385.068 840.682 386.739C840.682 388.455 840.943 389.96 841.466 391.256C841.989 392.551 842.761 393.562 843.784 394.29C844.818 395.017 846.091 395.381 847.602 395.381ZM877.585 400.528C875.006 400.528 872.784 399.977 870.92 398.875C869.068 397.761 867.636 396.199 866.625 394.188C865.625 392.165 865.125 389.795 865.125 387.08C865.125 384.398 865.625 382.034 866.625 379.989C867.636 377.943 869.045 376.347 870.852 375.199C872.67 374.051 874.795 373.477 877.227 373.477C878.705 373.477 880.136 373.722 881.523 374.21C882.909 374.699 884.153 375.466 885.256 376.511C886.358 377.557 887.227 378.915 887.864 380.585C888.5 382.244 888.818 384.261 888.818 386.636V388.443H868.006V384.625H883.824C883.824 383.284 883.551 382.097 883.006 381.062C882.46 380.017 881.693 379.193 880.705 378.591C879.727 377.989 878.58 377.688 877.261 377.688C875.83 377.688 874.58 378.04 873.511 378.744C872.455 379.437 871.636 380.347 871.057 381.472C870.489 382.585 870.205 383.795 870.205 385.102V388.085C870.205 389.835 870.511 391.324 871.125 392.551C871.75 393.778 872.619 394.716 873.733 395.364C874.847 396 876.148 396.318 877.636 396.318C878.602 396.318 879.483 396.182 880.278 395.909C881.074 395.625 881.761 395.205 882.341 394.648C882.92 394.091 883.364 393.403 883.67 392.585L888.494 393.455C888.108 394.875 887.415 396.119 886.415 397.188C885.426 398.244 884.182 399.068 882.682 399.659C881.193 400.239 879.494 400.528 877.585 400.528Z" fill="white"/>
<path d="M713.083 196.75H620.917C613.645 196.75 607.75 202.645 607.75 209.917V302.083C607.75 309.355 613.645 315.25 620.917 315.25H713.083C720.355 315.25 726.25 309.355 726.25 302.083V209.917C726.25 202.645 720.355 196.75 713.083 196.75Z" stroke="white" stroke-width="2" stroke-linecap="round" stroke-linejoin="round"/>
<path d="M647.25 249.417C654.522 249.417 660.417 243.522 660.417 236.25C660.417 228.978 654.522 223.083 647.25 223.083C639.978 223.083 634.083 228.978 634.083 236.25C634.083 243.522 639.978 249.417 647.25 249.417Z" stroke="white" stroke-width="2" stroke-linecap="round" stroke-linejoin="round"/>
<path d="M726.25 275.75L705.934 255.434C703.465 252.966 700.116 251.579 696.625 251.579C693.134 251.579 689.785 252.966 687.316 255.434L627.5 315.25" stroke="white" stroke-width="2" stroke-linecap="round" stroke-linejoin="round"/>
<rect x="60.5" y="53.5" width="1219" height="538" stroke="white" stroke-dasharray="10 10"/>
</svg>
