<svg width="49" height="43" viewBox="0 0 49 43" fill="none" xmlns="http://www.w3.org/2000/svg">
<path d="M46.0244 24.5L48 41.969L33.9624 37.6018L31.8828 24.5H35.8341L37.4978 34.0664L43.1129 35.8341L41.9691 24.5H46.0244Z" fill="#44FEA4" stroke="#44FEA4"/>
<path d="M7.03097 24.6039H2.7677L1 41.8649L15.4535 37.3937L17.2212 24.6039H12.958L11.5022 34.3782L5.88717 36.0419L7.03097 24.6039Z" fill="#44FEA4" stroke="#44FEA4"/>
<path d="M3.07965 22.1084L4.5354 1.104L17.3252 5.47126L24.8119 31.2589L16.7013 21.4845L13.4779 7.86285L8.59071 5.99117L7.65487 22.5243L3.07965 22.1084Z" fill="#44FEA4" stroke="#44FEA4"/>
<path d="M32.6108 5.47124L43.9448 1L45.4006 22.2124H41.3453L40.4094 5.99115L35.4183 7.96681L32.7148 21.0686L25.1241 31.2588L32.6108 5.47124Z" fill="#44FEA4" stroke="#44FEA4"/>
</svg>
